<svg width="84" height="84" viewBox="0 0 84 84" fill="none" xmlns="http://www.w3.org/2000/svg">
<path fill-rule="evenodd" clip-rule="evenodd" d="M40.4784 7.14787C40.8572 6.73621 41.391 6.50195 41.9503 6.50195H42.0497C42.609 6.50195 43.1428 6.73619 43.5215 7.14782C50.2383 14.4485 52.3257 22.3521 52.855 28.253C52.9801 29.6475 53.0184 30.9306 53.0109 32.0668C55.9775 29.2185 59.2139 26.616 61.9946 24.6074C63.99 23.1662 65.7958 21.998 67.1443 21.2485C67.8003 20.8839 68.4324 20.5706 68.9589 20.3896C69.1855 20.3116 69.5971 20.1834 70.0564 20.1906C70.2894 20.1942 70.7441 20.2338 71.2069 20.5259C71.7606 20.8753 72.0891 21.4363 72.1693 22.0239C73.1007 28.8545 69.5574 36.0981 66.2935 41.2793C65.2559 42.9265 64.2136 44.4151 63.2911 45.6741C66.4171 45.1894 69.524 45.0493 72.0926 45.1371C74.0988 45.2057 75.8981 45.417 77.1763 45.7653C77.7608 45.9245 78.5023 46.1794 79.0679 46.6464C79.3661 46.8926 79.7986 47.3491 79.9492 48.0559C80.1158 48.8382 79.8534 49.5118 79.5221 49.9615C75.2227 55.7963 68.4212 58.2132 63.2978 59.3159C62.5806 59.4703 61.8887 59.6004 61.2329 59.7112C63.0147 60.867 64.9214 62.2261 66.6273 63.5595C68.4066 64.9503 70.0524 66.3791 71.1011 67.5572C71.5806 68.0959 72.1399 68.8019 72.3921 69.5561C72.522 69.9448 72.6769 70.6621 72.3344 71.4274C71.9567 72.2714 71.2241 72.6401 70.6892 72.7787C63.8892 74.5403 57.3947 72.4186 52.2113 69.554C49.0062 67.7827 46.1947 65.6664 44 63.8579V75.498C44 76.6026 43.1046 77.498 42 77.498C40.8954 77.498 40 76.6026 40 75.498V63.8373C37.6929 65.7243 34.7012 67.9658 31.359 69.819C26.0871 72.7422 19.491 74.9532 13.1517 72.7345C12.5917 72.5385 11.9436 72.1025 11.634 71.2928C11.3559 70.5656 11.4944 69.8958 11.6263 69.4995C11.8801 68.7374 12.4341 68.0261 12.9227 67.4736C13.9787 66.2795 15.6271 64.8546 17.4036 63.4765C19.0906 62.1678 20.9721 60.8407 22.734 59.7089C22.0881 59.5993 21.4073 59.471 20.7021 59.3192C15.5788 58.2164 8.77729 55.7993 4.47793 49.9642C4.14657 49.5144 3.88426 48.8409 4.05085 48.0586C4.20138 47.3518 4.63386 46.8954 4.9321 46.6491C5.49763 46.182 6.23922 45.9272 6.82372 45.7679C8.10193 45.4196 9.90125 45.2083 11.9074 45.1397C14.476 45.0518 17.583 45.192 20.7091 45.6767C19.7865 44.4176 18.7442 42.9288 17.7065 41.2814C14.4426 36.0998 10.8993 28.8558 11.8307 22.0248C11.9109 21.4373 12.2393 20.8763 12.7931 20.5268C13.2558 20.2347 13.7106 20.1952 13.9436 20.1915C14.4029 20.1843 14.8146 20.3126 15.0412 20.3905C15.5677 20.5715 16.1998 20.8849 16.8558 21.2495C18.2042 21.9991 20.0101 23.1673 22.0054 24.6086C24.7861 26.6173 28.0225 29.22 30.9891 32.0685C30.9816 30.9321 31.0199 29.6489 31.145 28.2543C31.6743 22.3531 33.7617 14.449 40.4784 7.14787ZM42 11.5048C37.1485 17.513 35.562 23.7841 35.129 28.6117C34.8921 31.2523 35.0011 33.459 35.1157 34.962C35.1351 35.2166 35.1569 35.4739 35.1775 35.7172C35.2125 36.1314 35.244 36.5048 35.2548 36.7554C35.2597 36.8692 35.2632 37.0072 35.2575 37.1476C35.2536 37.2436 35.2417 37.5296 35.1346 37.8453C35.0814 38.0021 34.9469 38.3454 34.6233 38.6631C34.2304 39.0489 33.6582 39.2928 33.0248 39.2381C32.4997 39.1928 32.1379 38.9587 31.9804 38.8431C31.8037 38.7134 31.6804 38.5805 31.6119 38.5014C28.1617 34.5202 23.5027 30.6247 19.6632 27.8511C18.1466 26.7556 16.7862 25.8557 15.7069 25.2066C15.99 29.8445 18.394 34.868 21.091 39.1495C22.6625 41.6442 24.2564 43.7699 25.4087 45.2734C25.5518 45.4601 25.6909 45.6409 25.8239 45.8136C26.2101 46.3153 26.5443 46.7495 26.7718 47.0648C26.901 47.2438 27.1031 47.528 27.2358 47.8047C27.2741 47.8844 27.3385 48.0281 27.3875 48.2108C27.4217 48.3386 27.5352 48.7828 27.3795 49.3215C27.2898 49.632 27.1079 49.9783 26.7864 50.2665C26.469 50.5509 26.1186 50.6865 25.8323 50.7438C25.3312 50.8442 24.9318 50.7266 24.8109 50.6894C20.6624 49.413 15.7619 49.0102 12.0442 49.1374C10.9468 49.1749 9.99447 49.2574 9.22323 49.3658C12.6474 52.8041 17.3952 54.5157 21.5439 55.4087C23.9148 55.9191 25.996 56.143 27.4045 56.2933C27.449 56.298 27.4937 56.3028 27.5386 56.3076C28.1284 56.3702 28.7431 56.4355 29.1331 56.5245C29.2426 56.5495 29.457 56.6021 29.6849 56.7077C29.7978 56.7599 30.0071 56.8669 30.2214 57.0589C30.4364 57.2515 30.7836 57.6474 30.8802 58.2685C30.9824 58.925 30.7473 59.4501 30.5295 59.7587C30.3308 60.0403 30.1061 60.2084 29.99 60.2879C29.7548 60.4488 29.5228 60.5398 29.4117 60.5815C28.5128 60.9186 27.0128 61.7322 25.2238 62.8652C23.4707 63.9755 21.5543 65.319 19.8554 66.637C18.5129 67.6784 17.3592 68.6632 16.5351 69.4772C20.6851 70.1363 25.1734 68.6751 29.4192 66.3208C34.2011 63.6693 38.2561 60.1194 40.5141 58.1427C40.5716 58.0924 40.6279 58.0431 40.683 57.9948C41.4371 57.3351 42.5629 57.3351 43.317 57.9948C43.4569 58.1172 43.6031 58.2456 43.7554 58.3793C46.0377 60.3832 49.6917 63.5913 54.1461 66.053C58.1897 68.2877 62.6898 69.7922 67.2556 69.3387C66.4511 68.5707 65.3848 67.6653 64.1638 66.7109C62.4587 65.3781 60.535 64.0137 58.7765 62.8867C56.9798 61.7352 55.4804 60.9126 54.5883 60.5781C54.4772 60.5364 54.2452 60.4454 54.0101 60.2846C53.8939 60.2051 53.6692 60.0369 53.4705 59.7554C53.2527 59.4468 53.0176 58.9217 53.1198 58.2652C53.2165 57.644 53.5637 57.2481 53.7786 57.0555C53.9929 56.8635 54.2023 56.7565 54.3152 56.7043C54.5431 56.5988 54.7575 56.5462 54.867 56.5212C55.2569 56.4322 55.8716 56.3669 56.4614 56.3042C56.5063 56.2994 56.551 56.2947 56.5955 56.2899C58.004 56.1397 60.0852 55.9158 62.4562 55.4055C66.6048 54.5125 71.3524 52.8011 74.7766 49.3632C74.0054 49.2548 73.0531 49.1723 71.9559 49.1348C68.2381 49.0076 63.3376 49.4104 59.1891 50.6867C59.0681 50.7239 58.6688 50.8415 58.1677 50.7411C57.8815 50.6838 57.531 50.5483 57.2136 50.2638C56.8921 49.9757 56.7102 49.6293 56.6205 49.3188C56.4648 48.7801 56.5783 48.3359 56.6125 48.2081C56.6615 48.0253 56.726 47.8817 56.7642 47.802C56.8969 47.5253 57.0991 47.2411 57.2283 47.0621C57.4558 46.7467 57.79 46.3125 58.1763 45.8108C58.3092 45.6381 58.4483 45.4574 58.5914 45.2708C59.7436 43.7674 61.3376 41.6419 62.909 39.1473C65.606 34.8661 68.01 29.8431 68.2931 25.2056C67.2138 25.8546 65.8533 26.7546 64.3368 27.85C60.4972 30.6233 55.8382 34.5186 52.3881 38.4995C52.3196 38.5786 52.1962 38.7115 52.0195 38.8412C51.862 38.9568 51.5003 39.1909 50.9752 39.2362C50.3418 39.2909 49.7697 39.047 49.3768 38.6613C49.0531 38.3435 48.9186 38.0002 48.8655 37.8435C48.7583 37.5277 48.7464 37.2417 48.7425 37.1457C48.7368 37.0053 48.7403 36.8673 48.7452 36.7534C48.756 36.5029 48.7875 36.1295 48.8225 35.7153C48.8431 35.4721 48.8649 35.2148 48.8843 34.9602C48.9989 33.4573 49.1079 31.2508 48.871 28.6103C48.438 23.7832 46.8516 17.5126 42 11.5048ZM70.3098 24.1568C70.3095 24.1572 70.3017 24.1596 70.2873 24.163C70.3029 24.1581 70.3102 24.1564 70.3098 24.1568ZM13.6901 24.1577C13.6899 24.1574 13.6971 24.1591 13.7128 24.164C13.6982 24.1606 13.6904 24.1581 13.6901 24.1577Z" fill="white"/>
</svg>
